Coordinates
version=1
nRows=16
nColumns=22
inDegrees=yes

Units are S.I. units (second, meters, Newtons, ...)
If the header above contains a line with 'inDegrees', this indicates whether rotational values are in degrees (yes) or radians (no).

endheader
time	pelvis_tilt	pelvis_list	pelvis_rotation	pelvis_tx	pelvis_ty	pelvis_tz	hip_flexion_r	hip_adduction_r	hip_rotation_r	knee_angle_r	ankle_angle_r	subtalar_angle_r	hip_flexion_l	hip_adduction_l	hip_rotation_l	knee_angle_l	ankle_angle_l	subtalar_angle_l	lumbar_extension	lumbar_bending	lumbar_rotation
      2.31000000	     -3.82618598	      8.88075170	    -24.26592596	     -0.15940853	      0.88230733	      0.02926845	    -15.74031577	     -2.17110576	     -4.61290514	    -24.75758354	    -13.99780071	      7.28849930	     40.37705979	     11.36076383	      1.07340654	    -47.68331549	      5.89033354	     -2.28108241	    -10.19303442	     -5.21232407	     14.81629334
      2.32000000	     -3.99313235	      8.78761451	    -24.28254524	     -0.14108285	      0.88382956	      0.04026702	    -15.45078711	     -2.30836145	     -3.21442600	    -26.14967734	    -14.85514240	      7.34151324	     38.79523464	     11.15659659	      0.04488995	    -44.19212974	      5.43201262	     -2.14631711	     -9.67811500	     -4.99396874	     15.19075947
      2.33000000	     -4.12650109	      8.65095328	    -24.34858346	     -0.12280625	      0.88432308	      0.05117270	    -14.80696806	     -2.54593191	     -2.28147106	    -28.18876759	    -15.09056624	      7.19744290	     37.17957455	     10.92181263	     -1.02617693	    -41.32536001	      5.06211675	     -2.03068965	     -9.24092499	     -4.74144508	     15.43553340
      2.34000000	     -4.16798808	      8.48670246	    -24.44719537	     -0.10461781	      0.88385336	      0.06186019	    -13.88355617	     -2.94372601	     -1.88060062	    -30.81251584	    -14.71553495	      6.77748542	     35.50699026	     10.73444519	     -2.00332514	    -39.10809401	      4.94080927	     -1.98551761	     -8.95349126	     -4.49296002	     15.57474611
      2.35000000	     -4.14869825	      8.33899636	    -24.52249970	     -0.08653650	      0.88238502	      0.07227128	    -12.66293172	     -3.54102811	     -2.01351496	    -33.94324144	    -14.05339961	      5.90284602	     33.85608279	     10.62760286	     -2.83819434	    -37.55909123	      5.32961873	     -2.28069372	     -8.76531799	     -4.28851916	     15.49051536
      2.36000000	     -4.05735348	      8.19183145	    -24.54026076	     -0.06865225	      0.87998409	      0.08234574	    -11.21998126	     -4.31797752	     -2.53278635	    -37.47083704	    -13.04883385	      5.08479163	     32.23862941	     10.60520546	     -3.43890733	    -36.67278200	      6.30029146	     -2.90873713	     -8.71313318	     -4.11810597	     15.17814338
      2.37000000	     -3.86310350	      8.06137065	    -24.49237249	     -0.05100092	      0.87681112	      0.09212230	     -9.62747925	     -5.28277915	     -3.26604244	    -41.28373388	    -11.83615099	      4.18208628	     30.61932603	     10.69580107	     -3.76577521	    -36.34904350	      7.89738203	     -3.83365918	     -8.82810213	     -4.02292551	     14.62439049
      2.38000000	     -3.56956038	      7.95184998	    -24.37016198	     -0.03364806	      0.87297840	      0.10163687	     -7.90742265	     -6.40506827	     -4.05722621	    -45.30840332	    -10.42047162	      3.19648318	     29.00690916	     10.90122511	     -3.80912948	    -36.49789994	     10.04607078	     -4.98320052	     -9.11024331	     -4.01253995	     13.84345736
      2.39000000	     -3.17757454	      7.85725255	    -24.16858376	     -0.01668591	      0.86866217	      0.11093411	     -6.07687143	     -7.60507085	     -4.70653767	    -49.47778846	     -8.80098286	      2.02055869	     27.38928082	     11.22537939	     -3.54420635	    -36.99145857	     12.59820334	     -6.32420965	     -9.57717900	     -4.07891730	     12.82156102
      2.40000000	     -2.69850197	      7.80709811	    -23.91380316	     -0.00015454	      0.86400243	      0.12010928	     -4.10267158	     -8.88373238	     -5.15901776	    -53.75451840	     -7.01184757	      0.67948048	     25.78395159	     11.66396492	     -3.07098032	    -37.72263997	     15.33556402	     -7.74603761	    -10.20077115	     -4.25439040	     11.63293779
      2.41000000	     -2.14781449	      7.80609363	    -23.62810413	      0.01590166	      0.85919364	      0.12927938	     -1.96330697	    -10.18745975	     -5.33492639	    -58.07683754	     -5.07816693	     -0.91358415	     24.18788092	     12.19602855	     -2.44336959	    -38.58497240	     18.09390271	     -9.21122727	    -10.96066204	     -4.54219576	     10.30716489
      2.42000000	     -1.55679714	      7.87997745	    -23.34458611	      0.03148554	      0.85441210	      0.13852372	      0.39354470	    -11.49038770	     -5.18172058	    -62.38738823	     -3.06045896	     -2.72942484	     22.60495138	     12.81055823	     -1.73014372	    -39.46084476	     20.72824765	    -10.68681342	    -11.80592665	     -4.94949233	      8.89622176
      2.43000000	     -0.96773592	      8.01854637	    -23.08332196	      0.04665570	      0.84984666	      0.14796045	      2.99078366	    -12.74169381	     -4.72190012	    -66.58817507	     -1.00000743	     -4.79100070	     21.03164968	     13.45439620	     -0.97641633	    -40.26680526	     23.14236912	    -12.11346790	    -12.67503336	     -5.44896778	      7.43067257
      2.44000000	     -0.43809472	      8.21190774	    -22.87906066	      0.06149411	      0.84565291	      0.15768584	      5.87141245	    -13.88382093	     -3.95975587	    -70.58560516	      1.01737957	     -6.97142114	     19.47152456	     14.06413513	     -0.23426096	    -40.91187086	     25.27676226	    -13.43205381	    -13.48413282	     -6.00362054	      5.96481198
      2.45000000	     -0.02644187	      8.41592612	    -22.74028674	      0.07613063	      0.84198332	      0.16774987	      9.03587113	    -14.82792924	     -2.95099699	    -74.26529737	      2.93019179	     -9.17587699	     17.91987649	     14.55621624	      0.48112902	    -41.33257982	     27.10010313	    -14.57310993	    -14.16074756	     -6.53526611	      4.53120596
      2.46000000	      0.23303848	      8.57959555	    -22.67379991	      0.09071044	      0.83898051	      0.17820999	     12.43877893	    -15.49743151	     -1.78009059	    -77.51416876	      4.69431216	    -11.30635860	     16.35268652	     14.84828366	      1.14507829	    -41.48234830	     28.59019105	    -15.47699849	    -14.65536813	     -6.97225828	      3.14375205
